<?xml version="1.0" encoding="UTF-8" standalone="no"?><svg xmlns="http://www.w3.org/2000/svg" xmlns:xlink="http://www.w3.org/1999/xlink" data-name="Layer 1" fill="#000000" height="441.6" preserveAspectRatio="xMidYMid meet" version="1" viewBox="92.0 20.0 328.3 441.6" width="328.3" zoomAndPan="magnify"><g id="change1_1"><path d="M410.6969,128.34814c-30.65741,26.48193-61.31482,52.96387-91.97223,79.44568-15.05383,13.00354-46.81793-5.61475-27.96112-21.9032,19.87683-17.16968,39.75372-34.33936,59.63055-51.50903-28.44684-3.92627-58.12067-.87573-85.20831,8.59424-55.10059,19.26343-99.74597,60.68286-119.72742,115.91479-19.99066,55.25732-15.75745,119.81726,14.11981,170.80664,11.82275,20.17688-24.70453,31.87708-34.46893,15.21289-19.82843-33.83972-30.72565-71.67358-31.58002-110.9502-1.50256-69.07422,28.47534-135.70483,82.38641-179.09631,46.18048-37.16931,105.75494-55.48889,164.57062-52.09717-28.53259-17.20593-57.06512-34.41199-85.59766-51.61804-7.52551-4.53809-13.40039-12.55542-6.97333-21.03503,5.58978-7.37488,19.23383-10.1283,27.2561-5.29053,43.89545,26.47034,87.79089,52.94055,131.68634,79.41077,9.73138,5.86841,13.51562,15.75598,3.83917,24.1145Z" fill="#274370"/></g></svg>