<?xml version="1.0" encoding="UTF-8" standalone="no"?><svg xmlns="http://www.w3.org/2000/svg" xmlns:xlink="http://www.w3.org/1999/xlink" fill="#274370" height="273.7" preserveAspectRatio="xMidYMid meet" version="1" viewBox="38.2 112.4 423.2 273.7" width="423.2" zoomAndPan="magnify"><g id="change1_1"><path d="M379.04,134.3c-7.66-12.13-12.44-21.92-0.7-18.79c3.88,1.14,9.9,5.37,18.65,14.77c8.69,9.42,20.2,23.94,33.49,45.66 c22.58,37.75,30.89,54.83,29.34,58.25c-1.14,2.17-6.98,3.88-22.15,6.09c-14.99,2.46-39.99,4.68-75.57,13.36 c-10.23,2.35-30.27,6.82-35.7,2.18c-4.79-4,5.38-10.37,17.03-14.19c35.55-11.48,64.25-12.81,68.68-14.83 c2.75-1.05-6.26-3.55-17.83-9c-22.28-10.61-45.86-19.74-68.21-26.2c-33.33-9.34-67.17-13.27-99.2-10.57 c-32.01,2.52-61.79,11.49-86.2,24.95c-24.54,13.49-43.07,31.4-55.61,49.7c-12.59,18.31-19.52,36.32-23.27,50.53 c-5.91,24.27-4.79,42.02-3.22,53.26c1.69,11.32,3.33,16.66,3.62,17.84c0.78,3.71,0.19,8.3-2.39,8.61c-1.29,0.14-3.1-0.82-5.55-3.68 c-1.21-1.44-2.65-3.34-4.15-5.85c-1.32-2.57-2.76-5.73-4.32-9.6c-6.37-16.64-7.59-40.55-1.81-64.69 c6.47-27.99,21.24-55.14,41.4-76.93c20.26-22.05,45.98-37.15,71.08-47.15c33.11-12.93,66.02-16.93,95.57-16.47 c29.7,0.42,56.11,5.89,78.93,12.17c29.41,8.68,50.73,18.23,65.53,24.83c14.73,6.77,22.98,10.75,25.26,11.19 c5.74,1.15-8.83-21.67-21.33-42.74C396.99,161.06,386.84,146.38,379.04,134.3z"/></g></svg>