<?xml version="1.0" encoding="UTF-8" standalone="no"?><svg xmlns="http://www.w3.org/2000/svg" xmlns:xlink="http://www.w3.org/1999/xlink" fill="#274370" height="613.6" preserveAspectRatio="xMidYMid meet" version="1" viewBox="-1.2 -1.2 1098.5 613.6" width="1098.5" zoomAndPan="magnify"><g data-name="Layer 2"><g data-name="Layer 3" id="change1_1"><path d="M1063.13,13.66a22.5,22.5,0,1,0-41.37,17.69C1061.37,124,1062,234.88,1023.38,328S905.9,499,812.35,536.4c-73.06,29.23-147.2,30.1-203.4,2.36-27.72-13.68-50.46-35.67-65.69-61,31.71-5.05,66.19-15.59,93.2-40.54a110,110,0,0,0,34.63-75.9c.72-23.4-7.08-44.85-22-60.39-19.68-20.56-48.21-28.06-78.27-20.59-40.57,10.09-76.74,44.8-88,84.41a159.43,159.43,0,0,0-2.8,73.34c-134.94,4-271.75-41.28-377.86-124.78q24.39,3.46,48.87,6.24,18.66,2.1,37.37,3.8a21.73,21.73,0,0,0,15.37-4.73,23.37,23.37,0,0,0,7.52-14.2c.28-5.43-1-11.21-4.73-15.36a21.83,21.83,0,0,0-14.2-7.53q-33.27-3-66.41-7.33t-66.07-9.94q-18.52-3.17-37-6.74A21,21,0,0,0,1.84,287q9.79,25,18.81,50.38t17.28,51.19q4.27,13.35,8.31,26.77,2.73,9.13,5.37,18.32a15.64,15.64,0,0,0,3,7.61,15.93,15.93,0,0,0,5.63,6.21,15.85,15.85,0,0,0,7.45,3.11,16,16,0,0,0,8,.41c5.39-1.12,10.76-3.89,13.81-8.68l2.52-4.83a21.05,21.05,0,0,0,1-10.61q-9.32-32.53-19.79-64.74-3.21-9.87-6.57-19.69a631.92,631.92,0,0,0,193.92,107c75.58,25.74,156.05,37.06,234,33,1.21,2.58,2.49,5.14,3.82,7.69,20.22,38.49,52.39,70.06,90.58,88.91,67.64,33.38,155.13,33,240-.94,51.73-20.7,100.55-52.85,141.17-93s73.36-88.53,94.71-140,32.46-108.86,32.15-165.95S1085,64.9,1063.13,13.66ZM525.62,434.77c-4.55-19.48-4.67-39.33.56-57.77,6.81-24,30.68-46.83,55.53-53,14.58-3.63,26.33-.92,34.91,8,8.29,8.65,9.73,19.94,9.49,27.89,0,1.32-.13,2.64-.26,4a65.28,65.28,0,0,1-19.93,40.27C584.45,424,553.38,431.36,525.62,434.77Z"/></g></g></svg>