<?xml version="1.0" encoding="UTF-8"?>
<!DOCTYPE svg PUBLIC "-//W3C//DTD SVG 1.1//EN" "http://www.w3.org/Graphics/SVG/1.1/DTD/svg11.dtd">
<svg xmlns="http://www.w3.org/2000/svg" version="1.1" width="3497px" height="3550px" style="shape-rendering:geometricPrecision; text-rendering:geometricPrecision; image-rendering:optimizeQuality; fill-rule:evenodd; clip-rule:evenodd" xmlns:xlink="http://www.w3.org/1999/xlink">
<g><path style="opacity:0.02" fill="#000000" d="M 336.5,-0.5 C 337.833,-0.5 339.167,-0.5 340.5,-0.5C 340.5,19.5 340.5,39.5 340.5,59.5C 473.167,59.5 605.833,59.5 738.5,59.5C 738.5,39.5 738.5,19.5 738.5,-0.5C 739.833,-0.5 741.167,-0.5 742.5,-0.5C 742.5,19.5 742.5,39.5 742.5,59.5C 875.5,59.5 1008.5,59.5 1141.5,59.5C 1141.5,39.5 1141.5,19.5 1141.5,-0.5C 1142.83,-0.5 1144.17,-0.5 1145.5,-0.5C 1145.5,19.5 1145.5,39.5 1145.5,59.5C 1278.5,59.5 1411.5,59.5 1544.5,59.5C 1544.5,39.5 1544.5,19.5 1544.5,-0.5C 1545.83,-0.5 1547.17,-0.5 1548.5,-0.5C 1548.5,19.5 1548.5,39.5 1548.5,59.5C 1681.5,59.5 1814.5,59.5 1947.5,59.5C 1947.5,39.5 1947.5,19.5 1947.5,-0.5C 1948.83,-0.5 1950.17,-0.5 1951.5,-0.5C 1951.5,19.5 1951.5,39.5 1951.5,59.5C 2084.17,59.5 2216.83,59.5 2349.5,59.5C 2349.5,39.5 2349.5,19.5 2349.5,-0.5C 2350.83,-0.5 2352.17,-0.5 2353.5,-0.5C 2353.5,19.5 2353.5,39.5 2353.5,59.5C 2486.5,59.5 2619.5,59.5 2752.5,59.5C 2752.5,39.5 2752.5,19.5 2752.5,-0.5C 2753.83,-0.5 2755.17,-0.5 2756.5,-0.5C 2756.5,19.5 2756.5,39.5 2756.5,59.5C 2889.5,59.5 3022.5,59.5 3155.5,59.5C 3155.5,39.5 3155.5,19.5 3155.5,-0.5C 3156.83,-0.5 3158.17,-0.5 3159.5,-0.5C 3159.5,19.5 3159.5,39.5 3159.5,59.5C 3271.5,59.5 3383.5,59.5 3495.5,59.5C 3495.5,60.8333 3495.5,62.1667 3495.5,63.5C 3383.5,63.5 3271.5,63.5 3159.5,63.5C 3159.5,111.833 3159.5,160.167 3159.5,208.5C 3271.5,208.5 3383.5,208.5 3495.5,208.5C 3495.5,209.833 3495.5,211.167 3495.5,212.5C 3383.5,212.5 3271.5,212.5 3159.5,212.5C 3159.5,260.833 3159.5,309.167 3159.5,357.5C 3271.5,357.5 3383.5,357.5 3495.5,357.5C 3495.5,358.5 3495.5,359.5 3495.5,360.5C 3383.5,360.5 3271.5,360.5 3159.5,360.5C 3159.5,408.833 3159.5,457.167 3159.5,505.5C 3271.5,505.5 3383.5,505.5 3495.5,505.5C 3495.5,506.833 3495.5,508.167 3495.5,509.5C 3383.5,509.5 3271.5,509.5 3159.5,509.5C 3159.5,557.833 3159.5,606.167 3159.5,654.5C 3271.5,654.5 3383.5,654.5 3495.5,654.5C 3495.5,655.833 3495.5,657.167 3495.5,658.5C 3383.5,658.5 3271.5,658.5 3159.5,658.5C 3159.5,706.833 3159.5,755.167 3159.5,803.5C 3271.5,803.5 3383.5,803.5 3495.5,803.5C 3495.5,804.833 3495.5,806.167 3495.5,807.5C 3383.5,807.5 3271.5,807.5 3159.5,807.5C 3159.5,855.833 3159.5,904.167 3159.5,952.5C 3271.5,952.5 3383.5,952.5 3495.5,952.5C 3495.5,953.833 3495.5,955.167 3495.5,956.5C 3383.5,956.5 3271.5,956.5 3159.5,956.5C 3159.5,1004.83 3159.5,1053.17 3159.5,1101.5C 3271.5,1101.5 3383.5,1101.5 3495.5,1101.5C 3495.5,1102.83 3495.5,1104.17 3495.5,1105.5C 3383.5,1105.5 3271.5,1105.5 3159.5,1105.5C 3159.5,1153.83 3159.5,1202.17 3159.5,1250.5C 3271.5,1250.5 3383.5,1250.5 3495.5,1250.5C 3495.5,1251.83 3495.5,1253.17 3495.5,1254.5C 3383.5,1254.5 3271.5,1254.5 3159.5,1254.5C 3159.17,1302.21 3159.5,1349.88 3160.5,1397.5C 3272.16,1398.5 3383.83,1398.83 3495.5,1398.5C 3495.5,1399.83 3495.5,1401.17 3495.5,1402.5C 3383.83,1402.5 3272.17,1402.5 3160.5,1402.5C 3160.5,1450.83 3160.5,1499.17 3160.5,1547.5C 3272.17,1547.5 3383.83,1547.5 3495.5,1547.5C 3495.5,1548.83 3495.5,1550.17 3495.5,1551.5C 3383.83,1551.5 3272.17,1551.5 3160.5,1551.5C 3160.5,1599.83 3160.5,1648.17 3160.5,1696.5C 3272.17,1696.5 3383.83,1696.5 3495.5,1696.5C 3495.5,1697.83 3495.5,1699.17 3495.5,1700.5C 3383.83,1700.5 3272.17,1700.5 3160.5,1700.5C 3160.5,1748.83 3160.5,1797.17 3160.5,1845.5C 3272.17,1845.5 3383.83,1845.5 3495.5,1845.5C 3495.5,1846.83 3495.5,1848.17 3495.5,1849.5C 3383.83,1849.5 3272.17,1849.5 3160.5,1849.5C 3160.5,1897.83 3160.5,1946.17 3160.5,1994.5C 3272.17,1994.5 3383.83,1994.5 3495.5,1994.5C 3495.5,1995.83 3495.5,1997.17 3495.5,1998.5C 3383.83,1998.5 3272.17,1998.5 3160.5,1998.5C 3160.5,2046.83 3160.5,2095.17 3160.5,2143.5C 3272.17,2143.5 3383.83,2143.5 3495.5,2143.5C 3495.5,2144.83 3495.5,2146.17 3495.5,2147.5C 3383.83,2147.5 3272.17,2147.5 3160.5,2147.5C 3160.5,2195.83 3160.5,2244.17 3160.5,2292.5C 3272.17,2292.5 3383.83,2292.5 3495.5,2292.5C 3495.5,2293.5 3495.5,2294.5 3495.5,2295.5C 3383.83,2295.5 3272.17,2295.5 3160.5,2295.5C 3160.5,2343.83 3160.5,2392.17 3160.5,2440.5C 3272.17,2440.5 3383.83,2440.5 3495.5,2440.5C 3495.5,2441.83 3495.5,2443.17 3495.5,2444.5C 3383.83,2444.5 3272.17,2444.5 3160.5,2444.5C 3160.5,2492.83 3160.5,2541.17 3160.5,2589.5C 3272.17,2589.5 3383.83,2589.5 3495.5,2589.5C 3495.5,2590.83 3495.5,2592.17 3495.5,2593.5C 3383.83,2593.5 3272.17,2593.5 3160.5,2593.5C 3160.5,2641.83 3160.5,2690.17 3160.5,2738.5C 3272.17,2738.5 3383.83,2738.5 3495.5,2738.5C 3495.5,2739.83 3495.5,2741.17 3495.5,2742.5C 3383.83,2742.5 3272.17,2742.5 3160.5,2742.5C 3160.5,2790.83 3160.5,2839.17 3160.5,2887.5C 3272.17,2887.5 3383.83,2887.5 3495.5,2887.5C 3495.5,2888.83 3495.5,2890.17 3495.5,2891.5C 3383.83,2891.5 3272.17,2891.5 3160.5,2891.5C 3160.5,2939.83 3160.5,2988.17 3160.5,3036.5C 3272.17,3036.5 3383.83,3036.5 3495.5,3036.5C 3495.5,3037.83 3495.5,3039.17 3495.5,3040.5C 3383.83,3040.5 3272.17,3040.5 3160.5,3040.5C 3160.5,3088.83 3160.5,3137.17 3160.5,3185.5C 3272.17,3185.5 3383.83,3185.5 3495.5,3185.5C 3495.5,3186.83 3495.5,3188.17 3495.5,3189.5C 3383.83,3189.5 3272.17,3189.5 3160.5,3189.5C 3160.5,3237.83 3160.5,3286.17 3160.5,3334.5C 3272.17,3334.5 3383.83,3334.5 3495.5,3334.5C 3495.5,3335.5 3495.5,3336.5 3495.5,3337.5C 3383.83,3337.5 3272.17,3337.5 3160.5,3337.5C 3160.5,3385.83 3160.5,3434.17 3160.5,3482.5C 3272.17,3482.5 3383.83,3482.5 3495.5,3482.5C 3495.5,3483.83 3495.5,3485.17 3495.5,3486.5C 3383.83,3486.5 3272.17,3486.5 3160.5,3486.5C 3160.5,3506.83 3160.5,3527.17 3160.5,3547.5C 3159.18,3547.67 3158.01,3547.34 3157,3546.5C 3156.5,3526.5 3156.33,3506.5 3156.5,3486.5C 3023.83,3486.5 2891.17,3486.5 2758.5,3486.5C 2758.67,3506.5 2758.5,3526.5 2758,3546.5C 2756.99,3547.34 2755.82,3547.67 2754.5,3547.5C 2754.5,3527.17 2754.5,3506.83 2754.5,3486.5C 2621.5,3486.5 2488.5,3486.5 2355.5,3486.5C 2355.5,3506.83 2355.5,3527.17 2355.5,3547.5C 2354.17,3547.5 2352.83,3547.5 2351.5,3547.5C 2351.5,3527.17 2351.5,3506.83 2351.5,3486.5C 2218.5,3486.5 2085.5,3486.5 1952.5,3486.5C 1952.5,3506.83 1952.5,3527.17 1952.5,3547.5C 1951.17,3547.5 1949.83,3547.5 1948.5,3547.5C 1948.5,3527.17 1948.5,3506.83 1948.5,3486.5C 1815.5,3486.5 1682.5,3486.5 1549.5,3486.5C 1549.5,3506.83 1549.5,3527.17 1549.5,3547.5C 1548.18,3547.67 1547.01,3547.34 1546,3546.5C 1545.5,3526.5 1545.33,3506.5 1545.5,3486.5C 1412.83,3486.5 1280.17,3486.5 1147.5,3486.5C 1147.67,3506.5 1147.5,3526.5 1147,3546.5C 1145.99,3547.34 1144.82,3547.67 1143.5,3547.5C 1143.5,3527.17 1143.5,3506.83 1143.5,3486.5C 1010.5,3486.5 877.5,3486.5 744.5,3486.5C 744.5,3506.83 744.5,3527.17 744.5,3547.5C 743.167,3547.5 741.833,3547.5 740.5,3547.5C 740.5,3527.17 740.5,3506.83 740.5,3486.5C 607.5,3486.5 474.5,3486.5 341.5,3486.5C 341.5,3506.83 341.5,3527.17 341.5,3547.5C 340.167,3547.5 338.833,3547.5 337.5,3547.5C 337.5,3527.17 337.5,3506.83 337.5,3486.5C 224.833,3486.5 112.167,3486.5 -0.5,3486.5C -0.5,3485.17 -0.5,3483.83 -0.5,3482.5C 112.167,3482.5 224.833,3482.5 337.5,3482.5C 337.5,3434.17 337.5,3385.83 337.5,3337.5C 224.833,3337.5 112.167,3337.5 -0.5,3337.5C -0.5,3336.5 -0.5,3335.5 -0.5,3334.5C 112.167,3334.5 224.833,3334.5 337.5,3334.5C 337.5,3286.17 337.5,3237.83 337.5,3189.5C 224.833,3189.5 112.167,3189.5 -0.5,3189.5C -0.5,3188.17 -0.5,3186.83 -0.5,3185.5C 112.167,3185.5 224.833,3185.5 337.5,3185.5C 337.5,3137.17 337.5,3088.83 337.5,3040.5C 224.833,3040.5 112.167,3040.5 -0.5,3040.5C -0.5,3039.17 -0.5,3037.83 -0.5,3036.5C 112.167,3036.5 224.833,3036.5 337.5,3036.5C 337.5,2988.17 337.5,2939.83 337.5,2891.5C 224.833,2891.5 112.167,2891.5 -0.5,2891.5C -0.5,2890.17 -0.5,2888.83 -0.5,2887.5C 112.167,2887.5 224.833,2887.5 337.5,2887.5C 337.5,2839.17 337.5,2790.83 337.5,2742.5C 224.833,2742.5 112.167,2742.5 -0.5,2742.5C -0.5,2741.17 -0.5,2739.83 -0.5,2738.5C 112.167,2738.5 224.833,2738.5 337.5,2738.5C 337.5,2690.17 337.5,2641.83 337.5,2593.5C 224.833,2593.5 112.167,2593.5 -0.5,2593.5C -0.5,2592.17 -0.5,2590.83 -0.5,2589.5C 112.167,2589.5 224.833,2589.5 337.5,2589.5C 337.5,2541.17 337.5,2492.83 337.5,2444.5C 224.833,2444.5 112.167,2444.5 -0.5,2444.5C -0.5,2443.17 -0.5,2441.83 -0.5,2440.5C 112.167,2440.5 224.833,2440.5 337.5,2440.5C 337.5,2392.17 337.5,2343.83 337.5,2295.5C 224.833,2295.5 112.167,2295.5 -0.5,2295.5C -0.5,2294.5 -0.5,2293.5 -0.5,2292.5C 112.167,2292.5 224.833,2292.5 337.5,2292.5C 337.5,2244.17 337.5,2195.83 337.5,2147.5C 224.833,2147.5 112.167,2147.5 -0.5,2147.5C -0.5,2146.17 -0.5,2144.83 -0.5,2143.5C 112.167,2143.5 224.833,2143.5 337.5,2143.5C 337.5,2095.17 337.5,2046.83 337.5,1998.5C 224.833,1998.5 112.167,1998.5 -0.5,1998.5C -0.5,1997.17 -0.5,1995.83 -0.5,1994.5C 112.167,1994.5 224.833,1994.5 337.5,1994.5C 337.5,1946.17 337.5,1897.83 337.5,1849.5C 224.833,1849.5 112.167,1849.5 -0.5,1849.5C -0.5,1848.17 -0.5,1846.83 -0.5,1845.5C 112.167,1845.5 224.833,1845.5 337.5,1845.5C 336.619,1797.17 336.286,1748.84 336.5,1700.5C 224.167,1700.5 111.833,1700.5 -0.5,1700.5C -0.5,1699.17 -0.5,1697.83 -0.5,1696.5C 111.833,1696.5 224.167,1696.5 336.5,1696.5C 336.5,1648.17 336.5,1599.83 336.5,1551.5C 224.167,1551.5 111.833,1551.5 -0.5,1551.5C -0.5,1550.17 -0.5,1548.83 -0.5,1547.5C 111.833,1547.5 224.167,1547.5 336.5,1547.5C 336.5,1499.17 336.5,1450.83 336.5,1402.5C 224.167,1402.5 111.833,1402.5 -0.5,1402.5C -0.5,1401.17 -0.5,1399.83 -0.5,1398.5C 111.833,1398.5 224.167,1398.5 336.5,1398.5C 336.5,1350.5 336.5,1302.5 336.5,1254.5C 224.167,1254.5 111.833,1254.5 -0.5,1254.5C -0.5,1253.17 -0.5,1251.83 -0.5,1250.5C 111.833,1250.5 224.167,1250.5 336.5,1250.5C 336.5,1202.17 336.5,1153.83 336.5,1105.5C 224.167,1105.5 111.833,1105.5 -0.5,1105.5C -0.5,1104.17 -0.5,1102.83 -0.5,1101.5C 111.833,1101.5 224.167,1101.5 336.5,1101.5C 336.5,1053.17 336.5,1004.83 336.5,956.5C 224.167,956.5 111.833,956.5 -0.5,956.5C -0.5,955.167 -0.5,953.833 -0.5,952.5C 111.833,952.5 224.167,952.5 336.5,952.5C 336.5,904.167 336.5,855.833 336.5,807.5C 224.167,807.5 111.833,807.5 -0.5,807.5C -0.5,806.167 -0.5,804.833 -0.5,803.5C 111.833,803.5 224.167,803.5 336.5,803.5C 336.5,755.167 336.5,706.833 336.5,658.5C 224.167,658.5 111.833,658.5 -0.5,658.5C -0.5,657.167 -0.5,655.833 -0.5,654.5C 111.833,654.5 224.167,654.5 336.5,654.5C 336.5,606.167 336.5,557.833 336.5,509.5C 224.167,509.5 111.833,509.5 -0.5,509.5C -0.5,508.167 -0.5,506.833 -0.5,505.5C 111.833,505.5 224.167,505.5 336.5,505.5C 336.5,457.167 336.5,408.833 336.5,360.5C 224.167,360.5 111.833,360.5 -0.5,360.5C -0.5,359.5 -0.5,358.5 -0.5,357.5C 111.833,357.5 224.167,357.5 336.5,357.5C 336.5,309.167 336.5,260.833 336.5,212.5C 224.167,212.5 111.833,212.5 -0.5,212.5C -0.5,211.167 -0.5,209.833 -0.5,208.5C 111.833,208.5 224.167,208.5 336.5,208.5C 336.5,160.167 336.5,111.833 336.5,63.5C 224.167,63.5 111.833,63.5 -0.5,63.5C -0.5,62.1667 -0.5,60.8333 -0.5,59.5C 111.833,59.5 224.167,59.5 336.5,59.5C 336.5,39.5 336.5,19.5 336.5,-0.5 Z M 340.5,63.5 C 473.167,63.5 605.833,63.5 738.5,63.5C 738.973,111.832 739.307,160.165 739.5,208.5C 606.5,208.5 473.5,208.5 340.5,208.5C 340.5,160.167 340.5,111.833 340.5,63.5 Z M 742.5,63.5 C 875.5,63.5 1008.5,63.5 1141.5,63.5C 1141.5,111.833 1141.5,160.167 1141.5,208.5C 1008.5,208.5 875.5,208.5 742.5,208.5C 742.5,160.167 742.5,111.833 742.5,63.5 Z M 1145.5,63.5 C 1278.5,63.5 1411.5,63.5 1544.5,63.5C 1544.5,111.833 1544.5,160.167 1544.5,208.5C 1411.5,208.5 1278.5,208.5 1145.5,208.5C 1145.5,160.167 1145.5,111.833 1145.5,63.5 Z M 1548.5,63.5 C 1681.5,63.5 1814.5,63.5 1947.5,63.5C 1947.5,111.833 1947.5,160.167 1947.5,208.5C 1814.5,208.5 1681.5,208.5 1548.5,208.5C 1548.5,160.167 1548.5,111.833 1548.5,63.5 Z M 1951.5,63.5 C 2084.17,63.5 2216.83,63.5 2349.5,63.5C 2349.97,111.832 2350.31,160.165 2350.5,208.5C 2217.5,208.5 2084.5,208.5 1951.5,208.5C 1951.5,160.167 1951.5,111.833 1951.5,63.5 Z M 2353.5,63.5 C 2486.5,63.5 2619.5,63.5 2752.5,63.5C 2752.5,111.833 2752.5,160.167 2752.5,208.5C 2619.5,208.5 2486.5,208.5 2353.5,208.5C 2353.5,160.167 2353.5,111.833 2353.5,63.5 Z M 2756.5,63.5 C 2889.5,63.5 3022.5,63.5 3155.5,63.5C 3155.5,111.833 3155.5,160.167 3155.5,208.5C 3022.5,208.5 2889.5,208.5 2756.5,208.5C 2756.5,160.167 2756.5,111.833 2756.5,63.5 Z M 340.5,212.5 C 473.5,212.5 606.5,212.5 739.5,212.5C 739.5,260.833 739.5,309.167 739.5,357.5C 606.5,357.5 473.5,357.5 340.5,357.5C 340.5,309.167 340.5,260.833 340.5,212.5 Z M 742.5,212.5 C 875.5,212.5 1008.5,212.5 1141.5,212.5C 1141.5,260.833 1141.5,309.167 1141.5,357.5C 1008.83,357.5 876.167,357.5 743.5,357.5C 743.482,309.164 743.149,260.831 742.5,212.5 Z M 1145.5,212.5 C 1278.5,212.5 1411.5,212.5 1544.5,212.5C 1544.5,260.833 1544.5,309.167 1544.5,357.5C 1411.5,357.5 1278.5,357.5 1145.5,357.5C 1145.5,309.167 1145.5,260.833 1145.5,212.5 Z M 1548.5,212.5 C 1681.5,212.5 1814.5,212.5 1947.5,212.5C 1947.5,260.833 1947.5,309.167 1947.5,357.5C 1814.5,357.5 1681.5,357.5 1548.5,357.5C 1548.5,309.167 1548.5,260.833 1548.5,212.5 Z M 1951.5,212.5 C 2084.5,212.5 2217.5,212.5 2350.5,212.5C 2350.5,260.833 2350.5,309.167 2350.5,357.5C 2217.5,357.5 2084.5,357.5 1951.5,357.5C 1951.5,309.167 1951.5,260.833 1951.5,212.5 Z M 2353.5,212.5 C 2486.5,212.5 2619.5,212.5 2752.5,212.5C 2752.5,260.833 2752.5,309.167 2752.5,357.5C 2619.83,357.5 2487.17,357.5 2354.5,357.5C 2354.48,309.164 2354.15,260.831 2353.5,212.5 Z M 2756.5,212.5 C 2889.5,212.5 3022.5,212.5 3155.5,212.5C 3155.5,260.833 3155.5,309.167 3155.5,357.5C 3022.5,357.5 2889.5,357.5 2756.5,357.5C 2756.5,309.167 2756.5,260.833 2756.5,212.5 Z M 340.5,360.5 C 473.5,360.5 606.5,360.5 739.5,360.5C 739.5,408.833 739.5,457.167 739.5,505.5C 606.5,505.5 473.5,505.5 340.5,505.5C 340.5,457.167 340.5,408.833 340.5,360.5 Z M 743.5,360.5 C 876.167,360.5 1008.83,360.5 1141.5,360.5C 1141.5,408.833 1141.5,457.167 1141.5,505.5C 1008.83,505.5 876.167,505.5 743.5,505.5C 743.5,457.167 743.5,408.833 743.5,360.5 Z M 1145.5,360.5 C 1278.5,360.5 1411.5,360.5 1544.5,360.5C 1544.5,408.833 1544.5,457.167 1544.5,505.5C 1411.5,505.5 1278.5,505.5 1145.5,505.5C 1145.5,457.167 1145.5,408.833 1145.5,360.5 Z M 1548.5,360.5 C 1681.5,360.5 1814.5,360.5 1947.5,360.5C 1947.5,408.833 1947.5,457.167 1947.5,505.5C 1814.5,505.5 1681.5,505.5 1548.5,505.5C 1548.5,457.167 1548.5,408.833 1548.5,360.5 Z M 1951.5,360.5 C 2084.5,360.5 2217.5,360.5 2350.5,360.5C 2350.5,408.833 2350.5,457.167 2350.5,505.5C 2217.5,505.5 2084.5,505.5 1951.5,505.5C 1951.5,457.167 1951.5,408.833 1951.5,360.5 Z M 2354.5,360.5 C 2487.17,360.5 2619.83,360.5 2752.5,360.5C 2752.5,408.833 2752.5,457.167 2752.5,505.5C 2619.83,505.5 2487.17,505.5 2354.5,505.5C 2354.5,457.167 2354.5,408.833 2354.5,360.5 Z M 2756.5,360.5 C 2889.5,360.5 3022.5,360.5 3155.5,360.5C 3155.5,408.833 3155.5,457.167 3155.5,505.5C 3022.5,505.5 2889.5,505.5 2756.5,505.5C 2756.5,457.167 2756.5,408.833 2756.5,360.5 Z M 340.5,509.5 C 473.5,509.5 606.5,509.5 739.5,509.5C 739.5,557.833 739.5,606.167 739.5,654.5C 606.5,654.5 473.5,654.5 340.5,654.5C 340.5,606.167 340.5,557.833 340.5,509.5 Z M 743.5,509.5 C 876.167,509.5 1008.83,509.5 1141.5,509.5C 1141.5,557.833 1141.5,606.167 1141.5,654.5C 1008.83,654.5 876.167,654.5 743.5,654.5C 743.5,606.167 743.5,557.833 743.5,509.5 Z M 1145.5,509.5 C 1278.5,509.5 1411.5,509.5 1544.5,509.5C 1544.5,557.833 1544.5,606.167 1544.5,654.5C 1411.5,654.5 1278.5,654.5 1145.5,654.5C 1145.5,606.167 1145.5,557.833 1145.5,509.5 Z M 1548.5,509.5 C 1681.5,509.5 1814.5,509.5 1947.5,509.5C 1947.5,557.833 1947.5,606.167 1947.5,654.5C 1814.5,654.5 1681.5,654.5 1548.5,654.5C 1548.5,606.167 1548.5,557.833 1548.5,509.5 Z M 1951.5,509.5 C 2084.5,509.5 2217.5,509.5 2350.5,509.5C 2350.5,557.833 2350.5,606.167 2350.5,654.5C 2217.5,654.5 2084.5,654.5 1951.5,654.5C 1951.5,606.167 1951.5,557.833 1951.5,509.5 Z M 2354.5,509.5 C 2487.17,509.5 2619.83,509.5 2752.5,509.5C 2752.5,557.833 2752.5,606.167 2752.5,654.5C 2619.83,654.5 2487.17,654.5 2354.5,654.5C 2354.5,606.167 2354.5,557.833 2354.5,509.5 Z M 2756.5,509.5 C 2889.5,509.5 3022.5,509.5 3155.5,509.5C 3155.5,557.833 3155.5,606.167 3155.5,654.5C 3022.5,654.5 2889.5,654.5 2756.5,654.5C 2756.5,606.167 2756.5,557.833 2756.5,509.5 Z M 340.5,658.5 C 473.5,658.5 606.5,658.5 739.5,658.5C 739.5,706.833 739.5,755.167 739.5,803.5C 606.5,803.5 473.5,803.5 340.5,803.5C 340.5,755.167 340.5,706.833 340.5,658.5 Z M 743.5,658.5 C 876.167,658.5 1008.83,658.5 1141.5,658.5C 1142.31,706.829 1142.64,755.162 1142.5,803.5C 1009.5,803.5 876.5,803.5 743.5,803.5C 743.5,755.167 743.5,706.833 743.5,658.5 Z M 1145.5,658.5 C 1278.5,658.5 1411.5,658.5 1544.5,658.5C 1544.5,706.833 1544.5,755.167 1544.5,803.5C 1411.5,803.5 1278.5,803.5 1145.5,803.5C 1145.5,755.167 1145.5,706.833 1145.5,658.5 Z M 1548.5,658.5 C 1681.5,658.5 1814.5,658.5 1947.5,658.5C 1947.5,706.833 1947.5,755.167 1947.5,803.5C 1814.5,803.5 1681.5,803.5 1548.5,803.5C 1548.5,755.167 1548.5,706.833 1548.5,658.5 Z M 1951.5,658.5 C 2084.5,658.5 2217.5,658.5 2350.5,658.5C 2350.5,706.833 2350.5,755.167 2350.5,803.5C 2217.5,803.5 2084.5,803.5 1951.5,803.5C 1951.5,755.167 1951.5,706.833 1951.5,658.5 Z M 2354.5,658.5 C 2487.17,658.5 2619.83,658.5 2752.5,658.5C 2753.31,706.829 2753.64,755.162 2753.5,803.5C 2620.5,803.5 2487.5,803.5 2354.5,803.5C 2354.5,755.167 2354.5,706.833 2354.5,658.5 Z M 2756.5,658.5 C 2889.5,658.5 3022.5,658.5 3155.5,658.5C 3155.5,706.833 3155.5,755.167 3155.5,803.5C 3022.5,803.5 2889.5,803.5 2756.5,803.5C 2756.5,755.167 2756.5,706.833 2756.5,658.5 Z M 340.5,807.5 C 473.5,807.5 606.5,807.5 739.5,807.5C 739.5,855.833 739.5,904.167 739.5,952.5C 606.5,952.5 473.5,952.5 340.5,952.5C 340.5,904.167 340.5,855.833 340.5,807.5 Z M 743.5,807.5 C 876.5,807.5 1009.5,807.5 1142.5,807.5C 1142.5,855.833 1142.5,904.167 1142.5,952.5C 1009.5,952.5 876.5,952.5 743.5,952.5C 743.5,904.167 743.5,855.833 743.5,807.5 Z M 1145.5,807.5 C 1278.5,807.5 1411.5,807.5 1544.5,807.5C 1544.5,855.833 1544.5,904.167 1544.5,952.5C 1411.83,952.5 1279.17,952.5 1146.5,952.5C 1146.68,904.161 1146.35,855.828 1145.5,807.5 Z M 1548.5,807.5 C 1681.5,807.5 1814.5,807.5 1947.5,807.5C 1947.5,855.833 1947.5,904.167 1947.5,952.5C 1814.5,952.5 1681.5,952.5 1548.5,952.5C 1548.5,904.167 1548.5,855.833 1548.5,807.5 Z M 1951.5,807.5 C 2084.5,807.5 2217.5,807.5 2350.5,807.5C 2350.5,855.833 2350.5,904.167 2350.5,952.5C 2217.5,952.5 2084.5,952.5 1951.5,952.5C 1951.5,904.167 1951.5,855.833 1951.5,807.5 Z M 2354.5,807.5 C 2487.5,807.5 2620.5,807.5 2753.5,807.5C 2753.5,855.833 2753.5,904.167 2753.5,952.5C 2620.5,952.5 2487.5,952.5 2354.5,952.5C 2354.5,904.167 2354.5,855.833 2354.5,807.5 Z M 2756.5,807.5 C 2889.5,807.5 3022.5,807.5 3155.5,807.5C 3155.5,855.833 3155.5,904.167 3155.5,952.5C 3022.83,952.5 2890.17,952.5 2757.5,952.5C 2757.68,904.161 2757.35,855.828 2756.5,807.5 Z M 340.5,956.5 C 473.5,956.5 606.5,956.5 739.5,956.5C 739.5,1004.83 739.5,1053.17 739.5,1101.5C 606.5,1101.5 473.5,1101.5 340.5,1101.5C 340.5,1053.17 340.5,1004.83 340.5,956.5 Z M 743.5,956.5 C 876.5,956.5 1009.5,956.5 1142.5,956.5C 1142.5,1004.83 1142.5,1053.17 1142.5,1101.5C 1009.5,1101.5 876.5,1101.5 743.5,1101.5C 743.5,1053.17 743.5,1004.83 743.5,956.5 Z M 1146.5,956.5 C 1279.17,956.5 1411.83,956.5 1544.5,956.5C 1544.5,1004.83 1544.5,1053.17 1544.5,1101.5C 1411.83,1101.5 1279.17,1101.5 1146.5,1101.5C 1146.5,1053.17 1146.5,1004.83 1146.5,956.5 Z M 1548.5,956.5 C 1681.5,956.5 1814.5,956.5 1947.5,956.5C 1947.5,1004.83 1947.5,1053.17 1947.5,1101.5C 1814.5,1101.5 1681.5,1101.5 1548.5,1101.5C 1548.5,1053.17 1548.5,1004.83 1548.5,956.5 Z M 1951.5,956.5 C 2084.5,956.5 2217.5,956.5 2350.5,956.5C 2350.5,1004.83 2350.5,1053.17 2350.5,1101.5C 2217.5,1101.5 2084.5,1101.5 1951.5,1101.5C 1951.5,1053.17 1951.5,1004.83 1951.5,956.5 Z M 2354.5,956.5 C 2487.5,956.5 2620.5,956.5 2753.5,956.5C 2753.5,1004.83 2753.5,1053.17 2753.5,1101.5C 2620.5,1101.5 2487.5,1101.5 2354.5,1101.5C 2354.5,1053.17 2354.5,1004.83 2354.5,956.5 Z M 2757.5,956.5 C 2890.17,956.5 3022.83,956.5 3155.5,956.5C 3155.5,1004.83 3155.5,1053.17 3155.5,1101.5C 3022.83,1101.5 2890.17,1101.5 2757.5,1101.5C 2757.5,1053.17 2757.5,1004.83 2757.5,956.5 Z M 340.5,1105.5 C 473.5,1105.5 606.5,1105.5 739.5,1105.5C 739.5,1153.83 739.5,1202.17 739.5,1250.5C 606.5,1250.5 473.5,1250.5 340.5,1250.5C 340.5,1202.17 340.5,1153.83 340.5,1105.5 Z M 743.5,1105.5 C 876.5,1105.5 1009.5,1105.5 1142.5,1105.5C 1142.5,1153.83 1142.5,1202.17 1142.5,1250.5C 1009.5,1250.5 876.5,1250.5 743.5,1250.5C 743.5,1202.17 743.5,1153.83 743.5,1105.5 Z M 1146.5,1105.5 C 1279.17,1105.5 1411.83,1105.5 1544.5,1105.5C 1544.5,1153.83 1544.5,1202.17 1544.5,1250.5C 1411.83,1250.5 1279.17,1250.5 1146.5,1250.5C 1146.5,1202.17 1146.5,1153.83 1146.5,1105.5 Z M 1548.5,1105.5 C 1681.5,1105.5 1814.5,1105.5 1947.5,1105.5C 1947.5,1153.83 1947.5,1202.17 1947.5,1250.5C 1814.5,1250.5 1681.5,1250.5 1548.5,1250.5C 1548.5,1202.17 1548.5,1153.83 1548.5,1105.5 Z M 1951.5,1105.5 C 2084.5,1105.5 2217.5,1105.5 2350.5,1105.5C 2350.5,1153.83 2350.5,1202.17 2350.5,1250.5C 2217.5,1250.5 2084.5,1250.5 1951.5,1250.5C 1951.5,1202.17 1951.5,1153.83 1951.5,1105.5 Z M 2354.5,1105.5 C 2487.5,1105.5 2620.5,1105.5 2753.5,1105.5C 2753.5,1153.83 2753.5,1202.17 2753.5,1250.5C 2620.5,1250.5 2487.5,1250.5 2354.5,1250.5C 2354.5,1202.17 2354.5,1153.83 2354.5,1105.5 Z M 2757.5,1105.5 C 2890.17,1105.5 3022.83,1105.5 3155.5,1105.5C 3155.5,1153.83 3155.5,1202.17 3155.5,1250.5C 3022.83,1250.5 2890.17,1250.5 2757.5,1250.5C 2757.5,1202.17 2757.5,1153.83 2757.5,1105.5 Z M 340.5,1254.5 C 473.5,1254.5 606.5,1254.5 739.5,1254.5C 739.5,1302.5 739.5,1350.5 739.5,1398.5C 606.5,1398.5 473.5,1398.5 340.5,1398.5C 340.5,1350.5 340.5,1302.5 340.5,1254.5 Z M 743.5,1254.5 C 876.5,1254.5 1009.5,1254.5 1142.5,1254.5C 1142.5,1302.5 1142.5,1350.5 1142.5,1398.5C 1009.5,1398.5 876.5,1398.5 743.5,1398.5C 743.5,1350.5 743.5,1302.5 743.5,1254.5 Z M 1146.5,1254.5 C 1279.17,1254.5 1411.83,1254.5 1544.5,1254.5C 1545.46,1302.49 1545.79,1350.49 1545.5,1398.5C 1412.5,1398.5 1279.5,1398.5 1146.5,1398.5C 1146.5,1350.5 1146.5,1302.5 1146.5,1254.5 Z M 1548.5,1254.5 C 1681.5,1254.5 1814.5,1254.5 1947.5,1254.5C 1947.5,1302.5 1947.5,1350.5 1947.5,1398.5C 1814.83,1398.83 1682.16,1398.5 1549.5,1397.5C 1548.5,1349.88 1548.17,1302.21 1548.5,1254.5 Z M 1951.5,1254.5 C 2084.5,1254.5 2217.5,1254.5 2350.5,1254.5C 2350.5,1302.5 2350.5,1350.5 2350.5,1398.5C 2217.5,1398.5 2084.5,1398.5 1951.5,1398.5C 1951.5,1350.5 1951.5,1302.5 1951.5,1254.5 Z M 2354.5,1254.5 C 2487.5,1254.5 2620.5,1254.5 2753.5,1254.5C 2753.5,1302.5 2753.5,1350.5 2753.5,1398.5C 2620.5,1398.5 2487.5,1398.5 2354.5,1398.5C 2354.5,1350.5 2354.5,1302.5 2354.5,1254.5 Z M 2757.5,1254.5 C 2890.17,1254.5 3022.83,1254.5 3155.5,1254.5C 3156.46,1302.49 3156.79,1350.49 3156.5,1398.5C 3023.5,1398.5 2890.5,1398.5 2757.5,1398.5C 2757.5,1350.5 2757.5,1302.5 2757.5,1254.5 Z M 340.5,1402.5 C 473.5,1402.5 606.5,1402.5 739.5,1402.5C 739.5,1450.83 739.5,1499.17 739.5,1547.5C 606.5,1547.5 473.5,1547.5 340.5,1547.5C 340.5,1499.17 340.5,1450.83 340.5,1402.5 Z M 743.5,1402.5 C 876.5,1402.5 1009.5,1402.5 1142.5,1402.5C 1142.5,1450.83 1142.5,1499.17 1142.5,1547.5C 1009.5,1547.5 876.5,1547.5 743.5,1547.5C 743.5,1499.17 743.5,1450.83 743.5,1402.5 Z M 1146.5,1402.5 C 1279.5,1402.5 1412.5,1402.5 1545.5,1402.5C 1545.5,1450.83 1545.5,1499.17 1545.5,1547.5C 1412.5,1547.5 1279.5,1547.5 1146.5,1547.5C 1146.5,1499.17 1146.5,1450.83 1146.5,1402.5 Z M 1549.5,1402.5 C 1682.17,1402.5 1814.83,1402.5 1947.5,1402.5C 1947.5,1450.83 1947.5,1499.17 1947.5,1547.5C 1814.83,1547.5 1682.17,1547.5 1549.5,1547.5C 1549.5,1499.17 1549.5,1450.83 1549.5,1402.5 Z M 1951.5,1402.5 C 2084.5,1402.5 2217.5,1402.5 2350.5,1402.5C 2350.5,1450.83 2350.5,1499.17 2350.5,1547.5C 2217.5,1547.5 2084.5,1547.5 1951.5,1547.5C 1951.5,1499.17 1951.5,1450.83 1951.5,1402.5 Z M 2354.5,1402.5 C 2487.5,1402.5 2620.5,1402.5 2753.5,1402.5C 2753.5,1450.83 2753.5,1499.17 2753.5,1547.5C 2620.5,1547.5 2487.5,1547.5 2354.5,1547.5C 2354.5,1499.17 2354.5,1450.83 2354.5,1402.5 Z M 2757.5,1402.5 C 2890.5,1402.5 3023.5,1402.5 3156.5,1402.5C 3156.5,1450.83 3156.5,1499.17 3156.5,1547.5C 3023.5,1547.5 2890.5,1547.5 2757.5,1547.5C 2757.5,1499.17 2757.5,1450.83 2757.5,1402.5 Z M 340.5,1551.5 C 473.5,1551.5 606.5,1551.5 739.5,1551.5C 739.5,1599.83 739.5,1648.17 739.5,1696.5C 606.5,1696.5 473.5,1696.5 340.5,1696.5C 340.5,1648.17 340.5,1599.83 340.5,1551.5 Z M 743.5,1551.5 C 876.5,1551.5 1009.5,1551.5 1142.5,1551.5C 1142.5,1599.83 1142.5,1648.17 1142.5,1696.5C 1009.5,1696.5 876.5,1696.5 743.5,1696.5C 743.5,1648.17 743.5,1599.83 743.5,1551.5 Z M 1146.5,1551.5 C 1279.5,1551.5 1412.5,1551.5 1545.5,1551.5C 1545.5,1599.83 1545.5,1648.17 1545.5,1696.5C 1412.5,1696.5 1279.5,1696.5 1146.5,1696.5C 1146.5,1648.17 1146.5,1599.83 1146.5,1551.5 Z M 1549.5,1551.5 C 1682.17,1551.5 1814.83,1551.5 1947.5,1551.5C 1947.5,1599.83 1947.5,1648.17 1947.5,1696.5C 1814.83,1696.5 1682.17,1696.5 1549.5,1696.5C 1549.5,1648.17 1549.5,1599.83 1549.5,1551.5 Z M 1951.5,1551.5 C 2084.5,1551.5 2217.5,1551.5 2350.5,1551.5C 2350.5,1599.83 2350.5,1648.17 2350.5,1696.5C 2217.5,1696.5 2084.5,1696.5 1951.5,1696.5C 1951.5,1648.17 1951.5,1599.83 1951.5,1551.5 Z M 2354.5,1551.5 C 2487.5,1551.5 2620.5,1551.5 2753.5,1551.5C 2753.5,1599.83 2753.5,1648.17 2753.5,1696.5C 2620.5,1696.5 2487.5,1696.5 2354.5,1696.5C 2354.5,1648.17 2354.5,1599.83 2354.5,1551.5 Z M 2757.5,1551.5 C 2890.5,1551.5 3023.5,1551.5 3156.5,1551.5C 3156.5,1599.83 3156.5,1648.17 3156.5,1696.5C 3023.5,1696.5 2890.5,1696.5 2757.5,1696.5C 2757.5,1648.17 2757.5,1599.83 2757.5,1551.5 Z M 340.5,1700.5 C 473.5,1700.5 606.5,1700.5 739.5,1700.5C 739.5,1748.83 739.5,1797.17 739.5,1845.5C 606.5,1845.5 473.5,1845.5 340.5,1845.5C 340.5,1797.17 340.5,1748.83 340.5,1700.5 Z M 743.5,1700.5 C 876.5,1700.5 1009.5,1700.5 1142.5,1700.5C 1142.5,1748.83 1142.5,1797.17 1142.5,1845.5C 1009.5,1845.5 876.5,1845.5 743.5,1845.5C 743.5,1797.17 743.5,1748.83 743.5,1700.5 Z M 1146.5,1700.5 C 1279.5,1700.5 1412.5,1700.5 1545.5,1700.5C 1545.5,1748.83 1545.5,1797.17 1545.5,1845.5C 1412.5,1845.5 1279.5,1845.5 1146.5,1845.5C 1146.5,1797.17 1146.5,1748.83 1146.5,1700.5 Z M 1549.5,1700.5 C 1682.17,1700.5 1814.83,1700.5 1947.5,1700.5C 1947.29,1748.84 1947.62,1797.17 1948.5,1845.5C 1815.5,1845.5 1682.5,1845.5 1549.5,1845.5C 1549.5,1797.17 1549.5,1748.83 1549.5,1700.5 Z M 1951.5,1700.5 C 2084.5,1700.5 2217.5,1700.5 2350.5,1700.5C 2350.5,1748.83 2350.5,1797.17 2350.5,1845.5C 2217.5,1845.5 2084.5,1845.5 1951.5,1845.5C 1951.5,1797.17 1951.5,1748.83 1951.5,1700.5 Z M 2354.5,1700.5 C 2487.5,1700.5 2620.5,1700.5 2753.5,1700.5C 2753.5,1748.83 2753.5,1797.17 2753.5,1845.5C 2620.5,1845.5 2487.5,1845.5 2354.5,1845.5C 2354.5,1797.17 2354.5,1748.83 2354.5,1700.5 Z M 2757.5,1700.5 C 2890.5,1700.5 3023.5,1700.5 3156.5,1700.5C 3156.5,1748.83 3156.5,1797.17 3156.5,1845.5C 3023.5,1845.5 2890.5,1845.5 2757.5,1845.5C 2757.5,1797.17 2757.5,1748.83 2757.5,1700.5 Z M 340.5,1849.5 C 473.5,1849.5 606.5,1849.5 739.5,1849.5C 739.5,1897.83 739.5,1946.17 739.5,1994.5C 606.833,1994.5 474.167,1994.5 341.5,1994.5C 340.646,1946.17 340.312,1897.84 340.5,1849.5 Z M 743.5,1849.5 C 876.5,1849.5 1009.5,1849.5 1142.5,1849.5C 1142.5,1897.83 1142.5,1946.17 1142.5,1994.5C 1009.5,1994.5 876.5,1994.5 743.5,1994.5C 743.5,1946.17 743.5,1897.83 743.5,1849.5 Z M 1146.5,1849.5 C 1279.5,1849.5 1412.5,1849.5 1545.5,1849.5C 1545.5,1897.83 1545.5,1946.17 1545.5,1994.5C 1412.5,1994.5 1279.5,1994.5 1146.5,1994.5C 1146.5,1946.17 1146.5,1897.83 1146.5,1849.5 Z M 1549.5,1849.5 C 1682.5,1849.5 1815.5,1849.5 1948.5,1849.5C 1948.5,1897.83 1948.5,1946.17 1948.5,1994.5C 1815.5,1994.5 1682.5,1994.5 1549.5,1994.5C 1549.5,1946.17 1549.5,1897.83 1549.5,1849.5 Z M 1951.5,1849.5 C 2084.5,1849.5 2217.5,1849.5 2350.5,1849.5C 2350.5,1897.83 2350.5,1946.17 2350.5,1994.5C 2217.83,1994.5 2085.17,1994.5 1952.5,1994.5C 1951.65,1946.17 1951.31,1897.84 1951.5,1849.5 Z M 2354.5,1849.5 C 2487.5,1849.5 2620.5,1849.5 2753.5,1849.5C 2753.5,1897.83 2753.5,1946.17 2753.5,1994.5C 2620.5,1994.5 2487.5,1994.5 2354.5,1994.5C 2354.5,1946.17 2354.5,1897.83 2354.5,1849.5 Z M 2757.5,1849.5 C 2890.5,1849.5 3023.5,1849.5 3156.5,1849.5C 3156.5,1897.83 3156.5,1946.17 3156.5,1994.5C 3023.5,1994.5 2890.5,1994.5 2757.5,1994.5C 2757.5,1946.17 2757.5,1897.83 2757.5,1849.5 Z M 341.5,1998.5 C 474.167,1998.5 606.833,1998.5 739.5,1998.5C 739.5,2046.83 739.5,2095.17 739.5,2143.5C 606.833,2143.5 474.167,2143.5 341.5,2143.5C 341.5,2095.17 341.5,2046.83 341.5,1998.5 Z M 743.5,1998.5 C 876.5,1998.5 1009.5,1998.5 1142.5,1998.5C 1142.5,2046.83 1142.5,2095.17 1142.5,2143.5C 1009.5,2143.5 876.5,2143.5 743.5,2143.5C 743.5,2095.17 743.5,2046.83 743.5,1998.5 Z M 1146.5,1998.5 C 1279.5,1998.5 1412.5,1998.5 1545.5,1998.5C 1545.5,2046.83 1545.5,2095.17 1545.5,2143.5C 1412.5,2143.5 1279.5,2143.5 1146.5,2143.5C 1146.5,2095.17 1146.5,2046.83 1146.5,1998.5 Z M 1549.5,1998.5 C 1682.5,1998.5 1815.5,1998.5 1948.5,1998.5C 1948.5,2046.83 1948.5,2095.17 1948.5,2143.5C 1815.5,2143.5 1682.5,2143.5 1549.5,2143.5C 1549.5,2095.17 1549.5,2046.83 1549.5,1998.5 Z M 1952.5,1998.5 C 2085.17,1998.5 2217.83,1998.5 2350.5,1998.5C 2350.5,2046.83 2350.5,2095.17 2350.5,2143.5C 2217.83,2143.5 2085.17,2143.5 1952.5,2143.5C 1952.5,2095.17 1952.5,2046.83 1952.5,1998.5 Z M 2354.5,1998.5 C 2487.5,1998.5 2620.5,1998.5 2753.5,1998.5C 2753.5,2046.83 2753.5,2095.17 2753.5,2143.5C 2620.5,2143.5 2487.5,2143.5 2354.5,2143.5C 2354.5,2095.17 2354.5,2046.83 2354.5,1998.5 Z M 2757.5,1998.5 C 2890.5,1998.5 3023.5,1998.5 3156.5,1998.5C 3156.5,2046.83 3156.5,2095.17 3156.5,2143.5C 3023.5,2143.5 2890.5,2143.5 2757.5,2143.5C 2757.5,2095.17 2757.5,2046.83 2757.5,1998.5 Z M 341.5,2147.5 C 474.167,2147.5 606.833,2147.5 739.5,2147.5C 739.5,2195.83 739.5,2244.17 739.5,2292.5C 606.833,2292.5 474.167,2292.5 341.5,2292.5C 341.5,2244.17 341.5,2195.83 341.5,2147.5 Z M 743.5,2147.5 C 876.5,2147.5 1009.5,2147.5 1142.5,2147.5C 1142.5,2195.83 1142.5,2244.17 1142.5,2292.5C 1009.5,2292.5 876.5,2292.5 743.5,2292.5C 743.5,2244.17 743.5,2195.83 743.5,2147.5 Z M 1146.5,2147.5 C 1279.5,2147.5 1412.5,2147.5 1545.5,2147.5C 1545.5,2195.83 1545.5,2244.17 1545.5,2292.5C 1412.5,2292.5 1279.5,2292.5 1146.5,2292.5C 1146.5,2244.17 1146.5,2195.83 1146.5,2147.5 Z M 1549.5,2147.5 C 1682.5,2147.5 1815.5,2147.5 1948.5,2147.5C 1948.5,2195.83 1948.5,2244.17 1948.5,2292.5C 1815.5,2292.5 1682.5,2292.5 1549.5,2292.5C 1549.5,2244.17 1549.5,2195.83 1549.5,2147.5 Z M 1952.5,2147.5 C 2085.17,2147.5 2217.83,2147.5 2350.5,2147.5C 2350.5,2195.83 2350.5,2244.17 2350.5,2292.5C 2217.83,2292.5 2085.17,2292.5 1952.5,2292.5C 1952.5,2244.17 1952.5,2195.83 1952.5,2147.5 Z M 2354.5,2147.5 C 2487.5,2147.5 2620.5,2147.5 2753.5,2147.5C 2753.5,2195.83 2753.5,2244.17 2753.5,2292.5C 2620.5,2292.5 2487.5,2292.5 2354.5,2292.5C 2354.5,2244.17 2354.5,2195.83 2354.5,2147.5 Z M 2757.5,2147.5 C 2890.5,2147.5 3023.5,2147.5 3156.5,2147.5C 3156.5,2195.83 3156.5,2244.17 3156.5,2292.5C 3023.5,2292.5 2890.5,2292.5 2757.5,2292.5C 2757.5,2244.17 2757.5,2195.83 2757.5,2147.5 Z M 341.5,2295.5 C 474.167,2295.5 606.833,2295.5 739.5,2295.5C 739.467,2343.84 739.8,2392.17 740.5,2440.5C 607.5,2440.5 474.5,2440.5 341.5,2440.5C 341.5,2392.17 341.5,2343.83 341.5,2295.5 Z M 743.5,2295.5 C 876.5,2295.5 1009.5,2295.5 1142.5,2295.5C 1142.5,2343.83 1142.5,2392.17 1142.5,2440.5C 1009.5,2440.5 876.5,2440.5 743.5,2440.5C 743.5,2392.17 743.5,2343.83 743.5,2295.5 Z M 1146.5,2295.5 C 1279.5,2295.5 1412.5,2295.5 1545.5,2295.5C 1545.5,2343.83 1545.5,2392.17 1545.5,2440.5C 1412.5,2440.5 1279.5,2440.5 1146.5,2440.5C 1146.5,2392.17 1146.5,2343.83 1146.5,2295.5 Z M 1549.5,2295.5 C 1682.5,2295.5 1815.5,2295.5 1948.5,2295.5C 1948.5,2343.83 1948.5,2392.17 1948.5,2440.5C 1815.5,2440.5 1682.5,2440.5 1549.5,2440.5C 1549.5,2392.17 1549.5,2343.83 1549.5,2295.5 Z M 1952.5,2295.5 C 2085.17,2295.5 2217.83,2295.5 2350.5,2295.5C 2350.47,2343.84 2350.8,2392.17 2351.5,2440.5C 2218.5,2440.5 2085.5,2440.5 1952.5,2440.5C 1952.5,2392.17 1952.5,2343.83 1952.5,2295.5 Z M 2354.5,2295.5 C 2487.5,2295.5 2620.5,2295.5 2753.5,2295.5C 2753.5,2343.83 2753.5,2392.17 2753.5,2440.5C 2620.5,2440.5 2487.5,2440.5 2354.5,2440.5C 2354.5,2392.17 2354.5,2343.83 2354.5,2295.5 Z M 2757.5,2295.5 C 2890.5,2295.5 3023.5,2295.5 3156.5,2295.5C 3156.5,2343.83 3156.5,2392.17 3156.5,2440.5C 3023.5,2440.5 2890.5,2440.5 2757.5,2440.5C 2757.5,2392.17 2757.5,2343.83 2757.5,2295.5 Z M 341.5,2444.5 C 474.5,2444.5 607.5,2444.5 740.5,2444.5C 740.5,2492.83 740.5,2541.17 740.5,2589.5C 607.5,2589.5 474.5,2589.5 341.5,2589.5C 341.5,2541.17 341.5,2492.83 341.5,2444.5 Z M 743.5,2444.5 C 876.5,2444.5 1009.5,2444.5 1142.5,2444.5C 1142.5,2492.83 1142.5,2541.17 1142.5,2589.5C 1009.83,2589.5 877.167,2589.5 744.5,2589.5C 743.84,2541.17 743.507,2492.84 743.5,2444.5 Z M 1146.5,2444.5 C 1279.5,2444.5 1412.5,2444.5 1545.5,2444.5C 1545.5,2492.83 1545.5,2541.17 1545.5,2589.5C 1412.5,2589.5 1279.5,2589.5 1146.5,2589.5C 1146.5,2541.17 1146.5,2492.83 1146.5,2444.5 Z M 1549.5,2444.5 C 1682.5,2444.5 1815.5,2444.5 1948.5,2444.5C 1948.5,2492.83 1948.5,2541.17 1948.5,2589.5C 1815.5,2589.5 1682.5,2589.5 1549.5,2589.5C 1549.5,2541.17 1549.5,2492.83 1549.5,2444.5 Z M 1952.5,2444.5 C 2085.5,2444.5 2218.5,2444.5 2351.5,2444.5C 2351.5,2492.83 2351.5,2541.17 2351.5,2589.5C 2218.5,2589.5 2085.5,2589.5 1952.5,2589.5C 1952.5,2541.17 1952.5,2492.83 1952.5,2444.5 Z M 2354.5,2444.5 C 2487.5,2444.5 2620.5,2444.5 2753.5,2444.5C 2753.5,2492.83 2753.5,2541.17 2753.5,2589.5C 2620.83,2589.5 2488.17,2589.5 2355.5,2589.5C 2354.84,2541.17 2354.51,2492.84 2354.5,2444.5 Z M 2757.5,2444.5 C 2890.5,2444.5 3023.5,2444.5 3156.5,2444.5C 3156.5,2492.83 3156.5,2541.17 3156.5,2589.5C 3023.5,2589.5 2890.5,2589.5 2757.5,2589.5C 2757.5,2541.17 2757.5,2492.83 2757.5,2444.5 Z M 341.5,2593.5 C 474.5,2593.5 607.5,2593.5 740.5,2593.5C 740.5,2641.83 740.5,2690.17 740.5,2738.5C 607.5,2738.5 474.5,2738.5 341.5,2738.5C 341.5,2690.17 341.5,2641.83 341.5,2593.5 Z M 744.5,2593.5 C 877.167,2593.5 1009.83,2593.5 1142.5,2593.5C 1142.5,2641.83 1142.5,2690.17 1142.5,2738.5C 1009.83,2738.5 877.167,2738.5 744.5,2738.5C 744.5,2690.17 744.5,2641.83 744.5,2593.5 Z M 1146.5,2593.5 C 1279.5,2593.5 1412.5,2593.5 1545.5,2593.5C 1545.5,2641.83 1545.5,2690.17 1545.5,2738.5C 1412.5,2738.5 1279.5,2738.5 1146.5,2738.5C 1146.5,2690.17 1146.5,2641.83 1146.5,2593.5 Z M 1549.5,2593.5 C 1682.5,2593.5 1815.5,2593.5 1948.5,2593.5C 1948.5,2641.83 1948.5,2690.17 1948.5,2738.5C 1815.5,2738.5 1682.5,2738.5 1549.5,2738.5C 1549.5,2690.17 1549.5,2641.83 1549.5,2593.5 Z M 1952.5,2593.5 C 2085.5,2593.5 2218.5,2593.5 2351.5,2593.5C 2351.5,2641.83 2351.5,2690.17 2351.5,2738.5C 2218.5,2738.5 2085.5,2738.5 1952.5,2738.5C 1952.5,2690.17 1952.5,2641.83 1952.5,2593.5 Z M 2355.5,2593.5 C 2488.17,2593.5 2620.83,2593.5 2753.5,2593.5C 2753.5,2641.83 2753.5,2690.17 2753.5,2738.5C 2620.83,2738.5 2488.17,2738.5 2355.5,2738.5C 2355.5,2690.17 2355.5,2641.83 2355.5,2593.5 Z M 2757.5,2593.5 C 2890.5,2593.5 3023.5,2593.5 3156.5,2593.5C 3156.5,2641.83 3156.5,2690.17 3156.5,2738.5C 3023.5,2738.5 2890.5,2738.5 2757.5,2738.5C 2757.5,2690.17 2757.5,2641.83 2757.5,2593.5 Z M 341.5,2742.5 C 474.5,2742.5 607.5,2742.5 740.5,2742.5C 740.5,2790.83 740.5,2839.17 740.5,2887.5C 607.5,2887.5 474.5,2887.5 341.5,2887.5C 341.5,2839.17 341.5,2790.83 341.5,2742.5 Z M 744.5,2742.5 C 877.167,2742.5 1009.83,2742.5 1142.5,2742.5C 1142.5,2790.83 1142.5,2839.17 1142.5,2887.5C 1009.83,2887.5 877.167,2887.5 744.5,2887.5C 744.5,2839.17 744.5,2790.83 744.5,2742.5 Z M 1146.5,2742.5 C 1279.5,2742.5 1412.5,2742.5 1545.5,2742.5C 1545.5,2790.83 1545.5,2839.17 1545.5,2887.5C 1412.5,2887.5 1279.5,2887.5 1146.5,2887.5C 1146.5,2839.17 1146.5,2790.83 1146.5,2742.5 Z M 1549.5,2742.5 C 1682.5,2742.5 1815.5,2742.5 1948.5,2742.5C 1948.5,2790.83 1948.5,2839.17 1948.5,2887.5C 1815.5,2887.5 1682.5,2887.5 1549.5,2887.5C 1549.5,2839.17 1549.5,2790.83 1549.5,2742.5 Z M 1952.5,2742.5 C 2085.5,2742.5 2218.5,2742.5 2351.5,2742.5C 2351.5,2790.83 2351.5,2839.17 2351.5,2887.5C 2218.5,2887.5 2085.5,2887.5 1952.5,2887.5C 1952.5,2839.17 1952.5,2790.83 1952.5,2742.5 Z M 2355.5,2742.5 C 2488.17,2742.5 2620.83,2742.5 2753.5,2742.5C 2753.5,2790.83 2753.5,2839.17 2753.5,2887.5C 2620.83,2887.5 2488.17,2887.5 2355.5,2887.5C 2355.5,2839.17 2355.5,2790.83 2355.5,2742.5 Z M 2757.5,2742.5 C 2890.5,2742.5 3023.5,2742.5 3156.5,2742.5C 3156.5,2790.83 3156.5,2839.17 3156.5,2887.5C 3023.5,2887.5 2890.5,2887.5 2757.5,2887.5C 2757.5,2839.17 2757.5,2790.83 2757.5,2742.5 Z M 341.5,2891.5 C 474.5,2891.5 607.5,2891.5 740.5,2891.5C 740.5,2939.83 740.5,2988.17 740.5,3036.5C 607.5,3036.5 474.5,3036.5 341.5,3036.5C 341.5,2988.17 341.5,2939.83 341.5,2891.5 Z M 744.5,2891.5 C 877.167,2891.5 1009.83,2891.5 1142.5,2891.5C 1142.77,2939.83 1143.11,2988.17 1143.5,3036.5C 1010.5,3036.5 877.5,3036.5 744.5,3036.5C 744.5,2988.17 744.5,2939.83 744.5,2891.5 Z M 1146.5,2891.5 C 1279.5,2891.5 1412.5,2891.5 1545.5,2891.5C 1545.5,2939.83 1545.5,2988.17 1545.5,3036.5C 1412.5,3036.5 1279.5,3036.5 1146.5,3036.5C 1146.5,2988.17 1146.5,2939.83 1146.5,2891.5 Z M 1549.5,2891.5 C 1682.5,2891.5 1815.5,2891.5 1948.5,2891.5C 1948.5,2939.83 1948.5,2988.17 1948.5,3036.5C 1815.5,3036.5 1682.5,3036.5 1549.5,3036.5C 1549.5,2988.17 1549.5,2939.83 1549.5,2891.5 Z M 1952.5,2891.5 C 2085.5,2891.5 2218.5,2891.5 2351.5,2891.5C 2351.5,2939.83 2351.5,2988.17 2351.5,3036.5C 2218.5,3036.5 2085.5,3036.5 1952.5,3036.5C 1952.5,2988.17 1952.5,2939.83 1952.5,2891.5 Z M 2355.5,2891.5 C 2488.17,2891.5 2620.83,2891.5 2753.5,2891.5C 2753.77,2939.83 2754.11,2988.17 2754.5,3036.5C 2621.5,3036.5 2488.5,3036.5 2355.5,3036.5C 2355.5,2988.17 2355.5,2939.83 2355.5,2891.5 Z M 2757.5,2891.5 C 2890.5,2891.5 3023.5,2891.5 3156.5,2891.5C 3156.5,2939.83 3156.5,2988.17 3156.5,3036.5C 3023.5,3036.5 2890.5,3036.5 2757.5,3036.5C 2757.5,2988.17 2757.5,2939.83 2757.5,2891.5 Z M 341.5,3040.5 C 474.5,3040.5 607.5,3040.5 740.5,3040.5C 740.5,3088.83 740.5,3137.17 740.5,3185.5C 607.5,3185.5 474.5,3185.5 341.5,3185.5C 341.5,3137.17 341.5,3088.83 341.5,3040.5 Z M 744.5,3040.5 C 877.5,3040.5 1010.5,3040.5 1143.5,3040.5C 1143.5,3088.83 1143.5,3137.17 1143.5,3185.5C 1010.5,3185.5 877.5,3185.5 744.5,3185.5C 744.5,3137.17 744.5,3088.83 744.5,3040.5 Z M 1146.5,3040.5 C 1279.5,3040.5 1412.5,3040.5 1545.5,3040.5C 1545.5,3088.83 1545.5,3137.17 1545.5,3185.5C 1412.83,3185.5 1280.17,3185.5 1147.5,3185.5C 1147.35,3137.17 1147.02,3088.83 1146.5,3040.5 Z M 1549.5,3040.5 C 1682.5,3040.5 1815.5,3040.5 1948.5,3040.5C 1948.5,3088.83 1948.5,3137.17 1948.5,3185.5C 1815.5,3185.5 1682.5,3185.5 1549.5,3185.5C 1549.5,3137.17 1549.5,3088.83 1549.5,3040.5 Z M 1952.5,3040.5 C 2085.5,3040.5 2218.5,3040.5 2351.5,3040.5C 2351.5,3088.83 2351.5,3137.17 2351.5,3185.5C 2218.5,3185.5 2085.5,3185.5 1952.5,3185.5C 1952.5,3137.17 1952.5,3088.83 1952.5,3040.5 Z M 2355.5,3040.5 C 2488.5,3040.5 2621.5,3040.5 2754.5,3040.5C 2754.5,3088.83 2754.5,3137.17 2754.5,3185.5C 2621.5,3185.5 2488.5,3185.5 2355.5,3185.5C 2355.5,3137.17 2355.5,3088.83 2355.5,3040.5 Z M 2757.5,3040.5 C 2890.5,3040.5 3023.5,3040.5 3156.5,3040.5C 3156.5,3088.83 3156.5,3137.17 3156.5,3185.5C 3023.83,3185.5 2891.17,3185.5 2758.5,3185.5C 2758.35,3137.17 2758.02,3088.83 2757.5,3040.5 Z M 341.5,3189.5 C 474.5,3189.5 607.5,3189.5 740.5,3189.5C 740.5,3237.83 740.5,3286.17 740.5,3334.5C 607.5,3334.5 474.5,3334.5 341.5,3334.5C 341.5,3286.17 341.5,3237.83 341.5,3189.5 Z M 744.5,3189.5 C 877.5,3189.5 1010.5,3189.5 1143.5,3189.5C 1143.5,3237.83 1143.5,3286.17 1143.5,3334.5C 1010.5,3334.5 877.5,3334.5 744.5,3334.5C 744.5,3286.17 744.5,3237.83 744.5,3189.5 Z M 1147.5,3189.5 C 1280.17,3189.5 1412.83,3189.5 1545.5,3189.5C 1545.5,3237.83 1545.5,3286.17 1545.5,3334.5C 1412.83,3334.5 1280.17,3334.5 1147.5,3334.5C 1147.5,3286.17 1147.5,3237.83 1147.5,3189.5 Z M 1549.5,3189.5 C 1682.5,3189.5 1815.5,3189.5 1948.5,3189.5C 1948.5,3237.83 1948.5,3286.17 1948.5,3334.5C 1815.5,3334.5 1682.5,3334.5 1549.5,3334.5C 1549.5,3286.17 1549.5,3237.83 1549.5,3189.5 Z M 1952.5,3189.5 C 2085.5,3189.5 2218.5,3189.5 2351.5,3189.5C 2351.5,3237.83 2351.5,3286.17 2351.5,3334.5C 2218.5,3334.5 2085.5,3334.5 1952.5,3334.5C 1952.5,3286.17 1952.5,3237.83 1952.5,3189.5 Z M 2355.5,3189.5 C 2488.5,3189.5 2621.5,3189.5 2754.5,3189.5C 2754.5,3237.83 2754.5,3286.17 2754.5,3334.5C 2621.5,3334.5 2488.5,3334.5 2355.5,3334.5C 2355.5,3286.17 2355.5,3237.83 2355.5,3189.5 Z M 2758.5,3189.5 C 2891.17,3189.5 3023.83,3189.5 3156.5,3189.5C 3156.5,3237.83 3156.5,3286.17 3156.5,3334.5C 3023.83,3334.5 2891.17,3334.5 2758.5,3334.5C 2758.5,3286.17 2758.5,3237.83 2758.5,3189.5 Z M 341.5,3337.5 C 474.5,3337.5 607.5,3337.5 740.5,3337.5C 740.5,3385.83 740.5,3434.17 740.5,3482.5C 607.5,3482.5 474.5,3482.5 341.5,3482.5C 341.5,3434.17 341.5,3385.83 341.5,3337.5 Z M 744.5,3337.5 C 877.5,3337.5 1010.5,3337.5 1143.5,3337.5C 1143.5,3385.83 1143.5,3434.17 1143.5,3482.5C 1010.5,3482.5 877.5,3482.5 744.5,3482.5C 744.5,3434.17 744.5,3385.83 744.5,3337.5 Z M 1147.5,3337.5 C 1280.17,3337.5 1412.83,3337.5 1545.5,3337.5C 1545.5,3385.83 1545.5,3434.17 1545.5,3482.5C 1412.83,3482.5 1280.17,3482.5 1147.5,3482.5C 1147.5,3434.17 1147.5,3385.83 1147.5,3337.5 Z M 1549.5,3337.5 C 1682.5,3337.5 1815.5,3337.5 1948.5,3337.5C 1948.5,3385.83 1948.5,3434.17 1948.5,3482.5C 1815.5,3482.5 1682.5,3482.5 1549.5,3482.5C 1549.5,3434.17 1549.5,3385.83 1549.5,3337.5 Z M 1952.5,3337.5 C 2085.5,3337.5 2218.5,3337.5 2351.5,3337.5C 2351.5,3385.83 2351.5,3434.17 2351.5,3482.5C 2218.5,3482.5 2085.5,3482.5 1952.5,3482.5C 1952.5,3434.17 1952.5,3385.83 1952.5,3337.5 Z M 2355.5,3337.5 C 2488.5,3337.5 2621.5,3337.5 2754.5,3337.5C 2754.5,3385.83 2754.5,3434.17 2754.5,3482.5C 2621.5,3482.5 2488.5,3482.5 2355.5,3482.5C 2355.5,3434.17 2355.5,3385.83 2355.5,3337.5 Z M 2758.5,3337.5 C 2891.17,3337.5 3023.83,3337.5 3156.5,3337.5C 3156.5,3385.83 3156.5,3434.17 3156.5,3482.5C 3023.83,3482.5 2891.17,3482.5 2758.5,3482.5C 2758.5,3434.17 2758.5,3385.83 2758.5,3337.5 Z"/></g>
</svg>
