
<svg xmlns="http://www.w3.org/2000/svg" xmlns:xlink="http://www.w3.org/1999/xlink" width="69" zoomAndPan="magnify" viewBox="0 0 51.75 51.749998" height="69" preserveAspectRatio="xMidYMid meet" version="1.0"><defs><clipPath id="4855227726"><path d="M 0 0 L 50.753906 0 L 50.753906 50.753906 L 0 50.753906 Z M 0 0 " clip-rule="nonzero"/></clipPath><clipPath id="04a0b7f5d5"><path d="M 4.191406 13.851562 L 46.738281 13.851562 L 46.738281 36.988281 L 4.191406 36.988281 Z M 4.191406 13.851562 " clip-rule="nonzero"/></clipPath></defs><g clip-path="url(#4855227726)"><path fill="#000000" d="M 0 25.464844 C 0 6.367188 6.367188 0 25.464844 0 C 44.5625 0 50.929688 6.367188 50.929688 25.464844 C 50.929688 44.5625 44.5625 50.929688 25.464844 50.929688 C 6.367188 50.929688 0 44.5625 0 25.464844 Z M 0 25.464844 " fill-opacity="1" fill-rule="nonzero"/></g><g clip-path="url(#04a0b7f5d5)"><path fill="#ffffff" d="M 37.386719 19.007812 L 25.757812 25.390625 L 21.03125 17.339844 L 4.191406 37.0625 L 17.707031 27.460938 L 23.101562 36.617188 L 33.75 26.371094 L 42.183594 18.25 L 46.738281 13.871094 Z M 37.386719 19.007812 " fill-opacity="1" fill-rule="nonzero"/></g></svg>