
<svg xmlns="http://www.w3.org/2000/svg" xmlns:xlink="http://www.w3.org/1999/xlink" width="296" zoomAndPan="magnify" viewBox="0 0 222 56.999997" height="76" preserveAspectRatio="xMidYMid meet" version="1.0"><defs><g/><clipPath id="8bcb765435"><path d="M 0 2.683594 L 51 2.683594 L 51 53.683594 L 0 53.683594 Z M 0 2.683594 " clip-rule="nonzero"/></clipPath><clipPath id="29d5b3dcae"><path d="M 4.210938 16.601562 L 46.960938 16.601562 L 46.960938 39.851562 L 4.210938 39.851562 Z M 4.210938 16.601562 " clip-rule="nonzero"/></clipPath></defs><g clip-path="url(#8bcb765435)"><path fill="#2b59ff" d="M 0 28.273438 C 0 9.082031 6.398438 2.683594 25.589844 2.683594 C 44.777344 2.683594 51.175781 9.082031 51.175781 28.273438 C 51.175781 47.464844 44.777344 53.859375 25.589844 53.859375 C 6.398438 53.859375 0 47.464844 0 28.273438 Z M 0 28.273438 " fill-opacity="1" fill-rule="nonzero"/></g><g clip-path="url(#29d5b3dcae)"><path fill="#ffffff" d="M 37.566406 21.78125 L 25.882812 28.199219 L 21.132812 20.109375 L 4.210938 39.925781 L 17.792969 30.277344 L 23.210938 39.480469 L 33.910156 29.183594 L 42.390625 21.023438 L 46.960938 16.621094 Z M 37.566406 21.78125 " fill-opacity="1" fill-rule="nonzero"/></g><g fill="#2b59ff" fill-opacity="1"><g transform="translate(59.025507, 37.274996)"><g><path d="M 7.046875 -4.46875 L 9.8125 -4.46875 C 11.550781 -4.46875 12.972656 -4.988281 14.078125 -6.03125 C 15.191406 -7.070312 15.75 -8.601562 15.75 -10.625 C 15.75 -12.664062 15.191406 -14.203125 14.078125 -15.234375 C 12.972656 -16.273438 11.550781 -16.796875 9.8125 -16.796875 L 7.046875 -16.796875 Z M 9.984375 0 L 2.3125 0 L 2.3125 -21.265625 L 10.015625 -21.265625 C 13.234375 -21.265625 15.816406 -20.304688 17.765625 -18.390625 C 19.722656 -16.472656 20.703125 -13.882812 20.703125 -10.625 C 20.703125 -7.363281 19.722656 -4.773438 17.765625 -2.859375 C 15.816406 -0.953125 13.222656 0 9.984375 0 Z M 9.984375 0 "/></g></g></g><g fill="#2b59ff" fill-opacity="1"><g transform="translate(80.805488, 37.274996)"><g><path d="M 1.109375 -4.109375 C 1.109375 -5.367188 1.515625 -6.382812 2.328125 -7.15625 C 3.148438 -7.925781 4.210938 -8.410156 5.515625 -8.609375 L 9.03125 -9.15625 C 9.75 -9.25 10.109375 -9.585938 10.109375 -10.171875 C 10.109375 -10.628906 9.910156 -11.015625 9.515625 -11.328125 C 9.128906 -11.640625 8.597656 -11.796875 7.921875 -11.796875 C 7.160156 -11.796875 6.554688 -11.578125 6.109375 -11.140625 C 5.660156 -10.710938 5.414062 -10.195312 5.375 -9.59375 L 1.40625 -10.40625 C 1.507812 -11.644531 2.125 -12.78125 3.25 -13.8125 C 4.382812 -14.84375 5.953125 -15.359375 7.953125 -15.359375 C 10.210938 -15.359375 11.875 -14.816406 12.9375 -13.734375 C 14.007812 -12.660156 14.546875 -11.28125 14.546875 -9.59375 L 14.546875 -2.3125 C 14.546875 -1.375 14.609375 -0.601562 14.734375 0 L 10.625 0 C 10.519531 -0.394531 10.46875 -0.957031 10.46875 -1.6875 C 9.613281 -0.28125 8.210938 0.421875 6.265625 0.421875 C 4.691406 0.421875 3.4375 -0.0195312 2.5 -0.90625 C 1.570312 -1.800781 1.109375 -2.867188 1.109375 -4.109375 Z M 7.375 -2.875 C 8.15625 -2.875 8.804688 -3.101562 9.328125 -3.5625 C 9.847656 -4.03125 10.109375 -4.789062 10.109375 -5.84375 L 10.109375 -6.515625 L 7.296875 -6.0625 C 6.171875 -5.882812 5.609375 -5.332031 5.609375 -4.40625 C 5.609375 -3.988281 5.753906 -3.628906 6.046875 -3.328125 C 6.335938 -3.023438 6.78125 -2.875 7.375 -2.875 Z M 7.375 -2.875 "/></g></g></g><g fill="#2b59ff" fill-opacity="1"><g transform="translate(97.185472, 37.274996)"><g><path d="M 7.46875 -19.265625 L 7.46875 -14.90625 L 10.375 -14.90625 L 10.375 -10.921875 L 7.46875 -10.921875 L 7.46875 -5.34375 C 7.46875 -4.300781 8.019531 -3.78125 9.125 -3.78125 C 9.476562 -3.78125 9.875 -3.832031 10.3125 -3.9375 L 10.3125 -0.15625 C 9.757812 0.125 8.972656 0.265625 7.953125 0.265625 C 6.410156 0.265625 5.191406 -0.160156 4.296875 -1.015625 C 3.410156 -1.878906 2.96875 -3.050781 2.96875 -4.53125 L 2.96875 -10.921875 L 0.328125 -10.921875 L 0.328125 -14.90625 L 1.078125 -14.90625 C 1.835938 -14.90625 2.410156 -15.128906 2.796875 -15.578125 C 3.191406 -16.035156 3.390625 -16.625 3.390625 -17.34375 L 3.390625 -19.265625 Z M 7.46875 -19.265625 "/></g></g></g><g fill="#2b59ff" fill-opacity="1"><g transform="translate(108.645459, 37.274996)"><g><path d="M 1.109375 -4.109375 C 1.109375 -5.367188 1.515625 -6.382812 2.328125 -7.15625 C 3.148438 -7.925781 4.210938 -8.410156 5.515625 -8.609375 L 9.03125 -9.15625 C 9.75 -9.25 10.109375 -9.585938 10.109375 -10.171875 C 10.109375 -10.628906 9.910156 -11.015625 9.515625 -11.328125 C 9.128906 -11.640625 8.597656 -11.796875 7.921875 -11.796875 C 7.160156 -11.796875 6.554688 -11.578125 6.109375 -11.140625 C 5.660156 -10.710938 5.414062 -10.195312 5.375 -9.59375 L 1.40625 -10.40625 C 1.507812 -11.644531 2.125 -12.78125 3.25 -13.8125 C 4.382812 -14.84375 5.953125 -15.359375 7.953125 -15.359375 C 10.210938 -15.359375 11.875 -14.816406 12.9375 -13.734375 C 14.007812 -12.660156 14.546875 -11.28125 14.546875 -9.59375 L 14.546875 -2.3125 C 14.546875 -1.375 14.609375 -0.601562 14.734375 0 L 10.625 0 C 10.519531 -0.394531 10.46875 -0.957031 10.46875 -1.6875 C 9.613281 -0.28125 8.210938 0.421875 6.265625 0.421875 C 4.691406 0.421875 3.4375 -0.0195312 2.5 -0.90625 C 1.570312 -1.800781 1.109375 -2.867188 1.109375 -4.109375 Z M 7.375 -2.875 C 8.15625 -2.875 8.804688 -3.101562 9.328125 -3.5625 C 9.847656 -4.03125 10.109375 -4.789062 10.109375 -5.84375 L 10.109375 -6.515625 L 7.296875 -6.0625 C 6.171875 -5.882812 5.609375 -5.332031 5.609375 -4.40625 C 5.609375 -3.988281 5.753906 -3.628906 6.046875 -3.328125 C 6.335938 -3.023438 6.78125 -2.875 7.375 -2.875 Z M 7.375 -2.875 "/></g></g></g><g fill="#2b59ff" fill-opacity="1"><g transform="translate(125.025443, 37.274996)"><g><path d="M 21.953125 0 L 18.125 0 L 17.8125 -2.15625 C 17.300781 -1.414062 16.535156 -0.796875 15.515625 -0.296875 C 14.492188 0.203125 13.269531 0.453125 11.84375 0.453125 C 8.8125 0.453125 6.257812 -0.570312 4.1875 -2.625 C 2.113281 -4.675781 1.078125 -7.34375 1.078125 -10.625 C 1.078125 -13.882812 2.148438 -16.546875 4.296875 -18.609375 C 6.453125 -20.679688 9.070312 -21.71875 12.15625 -21.71875 C 14.914062 -21.71875 17.101562 -21.066406 18.71875 -19.765625 C 20.34375 -18.460938 21.429688 -16.925781 21.984375 -15.15625 L 17.4375 -13.5625 C 17.207031 -14.457031 16.65625 -15.300781 15.78125 -16.09375 C 14.914062 -16.882812 13.707031 -17.28125 12.15625 -17.28125 C 10.507812 -17.28125 9.050781 -16.710938 7.78125 -15.578125 C 6.507812 -14.453125 5.875 -12.800781 5.875 -10.625 C 5.875 -8.5 6.484375 -6.84375 7.703125 -5.65625 C 8.929688 -4.46875 10.453125 -3.875 12.265625 -3.875 C 13.828125 -3.875 15.046875 -4.25 15.921875 -5 C 16.804688 -5.75 17.335938 -6.53125 17.515625 -7.34375 L 11.125 -7.34375 L 11.125 -11.375 L 21.953125 -11.375 Z M 21.953125 0 "/></g></g></g><g fill="#2b59ff" fill-opacity="1"><g transform="translate(148.665421, 37.274996)"><g><path d="M 7.109375 0 L 2.3125 0 L 2.3125 -21.265625 L 7.109375 -21.265625 Z M 7.109375 0 "/></g></g></g><g fill="#2b59ff" fill-opacity="1"><g transform="translate(158.055412, 37.274996)"><g><path d="M 7.078125 0 L 2.3125 0 L 2.3125 -21.265625 L 16.015625 -21.265625 L 16.015625 -16.765625 L 7.046875 -16.765625 L 7.046875 -12.265625 L 14.9375 -12.265625 L 14.9375 -7.953125 L 7.078125 -7.953125 Z M 7.078125 0 "/></g></g></g><g fill="#2b59ff" fill-opacity="1"><g transform="translate(175.0954, 37.274996)"><g><path d="M 2.71875 -0.640625 C 2.125 -1.253906 1.828125 -1.976562 1.828125 -2.8125 C 1.828125 -3.65625 2.125 -4.375 2.71875 -4.96875 C 3.320312 -5.570312 4.046875 -5.875 4.890625 -5.875 C 5.734375 -5.875 6.457031 -5.570312 7.0625 -4.96875 C 7.675781 -4.375 7.984375 -3.65625 7.984375 -2.8125 C 7.984375 -2 7.675781 -1.28125 7.0625 -0.65625 C 6.457031 -0.0390625 5.734375 0.265625 4.890625 0.265625 C 4.046875 0.265625 3.320312 -0.0351562 2.71875 -0.640625 Z M 2.71875 -0.640625 "/></g></g></g><g fill="#2b59ff" fill-opacity="1"><g transform="translate(184.905389, 37.274996)"><g><path d="M 6.5625 0 L 2.015625 0 L 2.015625 -14.90625 L 6.5625 -14.90625 Z M 2.40625 -17.578125 C 1.882812 -18.097656 1.625 -18.726562 1.625 -19.46875 C 1.625 -20.207031 1.882812 -20.835938 2.40625 -21.359375 C 2.925781 -21.878906 3.546875 -22.140625 4.265625 -22.140625 C 5.003906 -22.140625 5.632812 -21.878906 6.15625 -21.359375 C 6.6875 -20.835938 6.953125 -20.207031 6.953125 -19.46875 C 6.953125 -18.726562 6.6875 -18.097656 6.15625 -17.578125 C 5.632812 -17.054688 5.003906 -16.796875 4.265625 -16.796875 C 3.546875 -16.796875 2.925781 -17.054688 2.40625 -17.578125 Z M 2.40625 -17.578125 "/></g></g></g><g fill="#2b59ff" fill-opacity="1"><g transform="translate(193.455384, 37.274996)"><g><path d="M 8.84375 -3.75 C 9.789062 -3.75 10.585938 -4.066406 11.234375 -4.703125 C 11.878906 -5.347656 12.203125 -6.269531 12.203125 -7.46875 C 12.203125 -8.664062 11.878906 -9.578125 11.234375 -10.203125 C 10.585938 -10.835938 9.789062 -11.15625 8.84375 -11.15625 C 7.925781 -11.15625 7.132812 -10.832031 6.46875 -10.1875 C 5.8125 -9.550781 5.484375 -8.644531 5.484375 -7.46875 C 5.484375 -6.289062 5.8125 -5.375 6.46875 -4.71875 C 7.132812 -4.070312 7.925781 -3.75 8.84375 -3.75 Z M 8.84375 -15.359375 C 11.101562 -15.359375 12.988281 -14.617188 14.5 -13.140625 C 16.007812 -11.660156 16.765625 -9.769531 16.765625 -7.46875 C 16.765625 -5.164062 16.007812 -3.269531 14.5 -1.78125 C 12.988281 -0.289062 11.101562 0.453125 8.84375 0.453125 C 6.601562 0.453125 4.722656 -0.296875 3.203125 -1.796875 C 1.691406 -3.296875 0.9375 -5.1875 0.9375 -7.46875 C 0.9375 -9.75 1.691406 -11.632812 3.203125 -13.125 C 4.722656 -14.613281 6.601562 -15.359375 8.84375 -15.359375 Z M 8.84375 -15.359375 "/></g></g></g></svg>